# xmcd
#
# Track frame offsets: 
#        150
#        22978
#        40275
#        57284
#        75997
#
# Disc length: 1250 seconds
#
# Revision: 0
# Processed by: cddbd v1.5.1PL0 Copyright (c) Steve Scherf et al.
# Submitted via: ExactAudioCopy v0.95a5
#
DISCID=2f04e005
DTITLE=Platform Two - Blues Revisited
DYEAR=2000
DGENRE=Blues
TTITLE0=Cold Day In Hell
TTITLE1=Pride And Joy
TTITLE2=Born Under A Bad Sign
TTITLE3=Pretty Woman
TTITLE4=City Of Gold
EXTD=Vocals - Jak Bentley\nGuitars - Andy Lumb\nKeyboards - Drum - Bas
EXTD=s - Mark Young\nEngineered By - Mark Young and Andy Lumb\nMixed By 
EXTD=: Andy Lumb\nMastered By - Andy Lumb\nProduced by - Andy Lumb\nRe
EXTD=corded at Mark's studio in South Woodham Ferrers and Andy's Studi
EXTD=on in Silver End, Essex.\n
EXTT0=
EXTT1=
EXTT2=
EXTT3=
EXTT4=
PLAYORDER=
